<svg width="64" height="64" viewBox="0 0 64 64" fill="none" xmlns="http://www.w3.org/2000/svg">
    <path d="M49.9367 30.8275V26.2481C49.9367 18.0534 44.4167 11.1239 36.8998 8.98225C38.4523 7.61637 39.4349 5.61713 39.4349 3.39175V1.27013C39.4349 0.56875 38.8662 0 38.1648 0H25.8103C25.1089 0 24.5402 0.56875 24.5402 1.27013V3.39162C24.5402 5.61713 25.5227 7.61625 27.0753 8.98213C19.5584 11.1238 14.0384 18.0535 14.0384 26.248V30.8296C11.7689 31.398 10.0809 33.4761 10.0809 35.9468V37.496C10.0809 39.8018 11.8117 41.7095 14.0421 41.9919L14.0437 46.432C14.0437 46.4384 14.0446 46.4444 14.0446 46.4506C14.0446 46.4548 14.0439 46.4586 14.0439 46.4627C14.1598 51.1641 16.0772 55.5701 19.4431 58.8695C22.8182 62.178 27.2733 64 31.9877 64C36.7021 64 41.1571 62.1779 44.5323 58.8696C47.8981 55.5704 49.8154 51.1642 49.9313 46.4627C49.9314 46.4586 49.9307 46.4548 49.9307 46.4507C49.9308 46.4445 49.9316 46.4384 49.9316 46.4321L49.9332 41.9951C52.1756 41.7239 53.9191 39.8104 53.9191 37.4961V35.9469C53.9188 33.4729 52.2197 31.3926 49.9367 30.8275ZM14.0179 39.3981C13.2092 39.1441 12.6208 38.3875 12.6208 37.496V35.9468C12.6208 34.8889 13.1796 33.9894 14.0179 33.5341V39.3981ZM27.0803 2.54012H36.8947V3.39162C36.8947 6.0975 34.6934 8.29887 31.9874 8.29887C29.2814 8.29887 27.0803 6.09762 27.0803 3.39162V2.54012ZM31.9873 10.839C37.7346 10.839 42.4513 17.2356 42.8021 25.2852H21.1726C21.5236 17.2357 26.2402 10.839 31.9873 10.839ZM16.5783 26.2481C16.5783 21.725 18.5376 17.6509 21.6517 14.8294C19.7144 17.9844 18.6457 21.9112 18.6132 26.0541L16.5784 28.4827L16.5783 26.2481ZM31.9873 61.4599C24.5334 61.4599 18.1944 55.9975 16.8438 48.8585C18.5506 49.6548 20.4933 50.079 22.5142 50.079C25.0778 50.079 27.7897 49.2271 29.9823 47.7406C30.5427 48.1577 31.2367 48.405 31.9874 48.405C32.7391 48.405 33.4339 48.1572 33.9946 47.7391C36.1874 49.2266 38.8988 50.079 41.4606 50.079C43.4816 50.079 45.4242 49.6546 47.1308 48.8586C45.7802 55.9976 39.4414 61.4599 31.9873 61.4599ZM47.3914 45.7914C45.7587 46.9207 43.6778 47.5389 41.4607 47.5389C39.3872 47.5389 37.0912 46.8026 35.3188 45.5695C35.3164 45.5679 35.3137 45.5665 35.3113 45.5648C35.3382 45.3937 35.3524 45.2186 35.3524 45.0402V43.4222C35.3523 42.7207 34.7836 42.1521 34.0822 42.1521C33.3808 42.1521 32.8121 42.7209 32.8121 43.4222V45.0402C32.8121 45.495 32.4421 45.8649 31.9874 45.8649C31.5327 45.8649 31.1628 45.4949 31.1628 45.0402V43.4222C31.1628 42.7209 30.5941 42.1521 29.8927 42.1521C29.1913 42.1521 28.6226 42.7209 28.6226 43.4222V45.0402C28.6226 45.2196 28.6371 45.3955 28.6641 45.5674C28.6629 45.5681 28.6617 45.5687 28.6606 45.5695C26.8882 46.8026 24.5904 47.5389 22.5141 47.5389C20.2969 47.5389 18.2158 46.9207 16.5832 45.7912L16.5783 32.4676L20.4429 27.8552H43.5317L47.3963 32.4676L47.3914 45.7914ZM47.3966 28.4829L45.3618 26.0543C45.3294 21.9114 44.2607 17.9845 42.3233 14.8295C45.4374 17.651 47.3967 21.725 47.3967 26.2482V28.4829H47.3966ZM51.3787 37.4963C51.3787 38.3951 50.7806 39.1569 49.9614 39.4045V33.529C50.8116 33.9826 51.3787 34.8851 51.3787 35.9469V37.4963Z" fill="#fdfdfa"/>
    <path d="M29.3387 30.7C29.1495 30.0247 28.4489 29.6305 27.773 29.8199L21.6176 31.5452C20.9424 31.7345 20.5482 32.4356 20.7375 33.111C20.8946 33.6717 21.4045 34.0386 21.9599 34.0386C22.0732 34.0386 22.1887 34.0232 22.3032 33.9911L28.4586 32.2657C29.1339 32.0765 29.528 31.3754 29.3387 30.7Z" fill="#fdfdfa"/>
    <path d="M42.8488 33.4234C42.7898 32.7244 42.1734 32.2076 41.4761 32.2646L35.1063 32.8029C34.4073 32.8621 33.8885 33.4765 33.9475 34.1755C34.0035 34.8382 34.5586 35.3387 35.2116 35.3387C35.2474 35.3387 35.2836 35.3371 35.3201 35.3341L36.2705 35.2539V36.3244C36.2705 37.0257 36.8393 37.5945 37.5406 37.5945C38.242 37.5945 38.8108 37.0257 38.8108 36.3244V35.0391L41.69 34.7957C42.389 34.7367 42.9078 34.1222 42.8488 33.4234Z" fill="#fdfdfa"/>
    <path d="M38.0667 51.3704C37.7486 50.7453 36.9839 50.4964 36.3586 50.8146C33.583 52.2274 30.2692 52.2274 27.4935 50.8146C26.8686 50.4966 26.1037 50.7451 25.7855 51.3704C25.4674 51.9955 25.7161 52.7603 26.3412 53.0784C26.8357 53.33 27.344 53.5448 27.8617 53.7253V56.5188C27.8617 58.7599 29.685 60.583 31.926 60.583C34.167 60.583 35.9902 58.7598 35.9902 56.5188V53.7253C36.5079 53.5448 37.0164 53.33 37.5107 53.0784C38.136 52.7603 38.3849 51.9955 38.0667 51.3704ZM33.4501 56.5189C33.4501 57.3593 32.7665 58.043 31.926 58.043C31.0856 58.043 30.4019 57.3594 30.4019 56.5189V54.3184C30.9079 54.3811 31.4167 54.4134 31.926 54.4134C32.4351 54.4134 32.9441 54.3811 33.4501 54.3184V56.5189Z" fill="#fdfdfa"/>
    <path d="M28.6629 36.1056C28.1994 34.9269 27.1085 34.1654 25.8835 34.1654C24.6584 34.1654 23.5675 34.9269 23.104 36.1055C22.8474 36.7584 23.1685 37.4955 23.8214 37.7521C24.4744 38.009 25.2115 37.6875 25.468 37.0348C25.5279 36.8829 25.6724 36.7054 25.8835 36.7054C26.0946 36.7054 26.239 36.8826 26.2989 37.0348C26.4955 37.535 26.9742 37.8406 27.4814 37.8406C27.636 37.8406 27.793 37.8121 27.9456 37.7523C28.5985 37.4956 28.9195 36.7585 28.6629 36.1056Z" fill="#fdfdfa"/>
</svg>
